<svg id="visual" viewBox="0 0 960 540" width="960" height="540" xmlns="http://www.w3.org/2000/svg" xmlns:xlink="http://www.w3.org/1999/xlink" version="1.1"><rect x="0" y="0" width="960" height="540" fill="#f6770e"></rect><defs><linearGradient id="grad1_0" x1="43.8%" y1="100%" x2="100%" y2="0%"><stop offset="14.444444444444446%" stop-color="#fbae3c" stop-opacity="1"></stop><stop offset="85.55555555555554%" stop-color="#fbae3c" stop-opacity="1"></stop></linearGradient></defs><defs><linearGradient id="grad1_1" x1="43.8%" y1="100%" x2="100%" y2="0%"><stop offset="14.444444444444446%" stop-color="#fbae3c" stop-opacity="1"></stop><stop offset="85.55555555555554%" stop-color="#f99d2b" stop-opacity="1"></stop></linearGradient></defs><defs><linearGradient id="grad1_2" x1="43.8%" y1="100%" x2="100%" y2="0%"><stop offset="14.444444444444446%" stop-color="#f88a1c" stop-opacity="1"></stop><stop offset="85.55555555555554%" stop-color="#f99d2b" stop-opacity="1"></stop></linearGradient></defs><defs><linearGradient id="grad1_3" x1="43.8%" y1="100%" x2="100%" y2="0%"><stop offset="14.444444444444446%" stop-color="#f88a1c" stop-opacity="1"></stop><stop offset="85.55555555555554%" stop-color="#f6770e" stop-opacity="1"></stop></linearGradient></defs><defs><linearGradient id="grad2_0" x1="0%" y1="100%" x2="56.3%" y2="0%"><stop offset="14.444444444444446%" stop-color="#fbae3c" stop-opacity="1"></stop><stop offset="85.55555555555554%" stop-color="#fbae3c" stop-opacity="1"></stop></linearGradient></defs><defs><linearGradient id="grad2_1" x1="0%" y1="100%" x2="56.3%" y2="0%"><stop offset="14.444444444444446%" stop-color="#f99d2b" stop-opacity="1"></stop><stop offset="85.55555555555554%" stop-color="#fbae3c" stop-opacity="1"></stop></linearGradient></defs><defs><linearGradient id="grad2_2" x1="0%" y1="100%" x2="56.3%" y2="0%"><stop offset="14.444444444444446%" stop-color="#f99d2b" stop-opacity="1"></stop><stop offset="85.55555555555554%" stop-color="#f88a1c" stop-opacity="1"></stop></linearGradient></defs><defs><linearGradient id="grad2_3" x1="0%" y1="100%" x2="56.3%" y2="0%"><stop offset="14.444444444444446%" stop-color="#f6770e" stop-opacity="1"></stop><stop offset="85.55555555555554%" stop-color="#f88a1c" stop-opacity="1"></stop></linearGradient></defs><g transform="translate(960, 540)"><path d="M-405 0C-395.5 -40.8 -386 -81.5 -374.7 -121.8C-363.4 -162 -350.4 -201.7 -327.7 -238.1C-304.9 -274.4 -272.6 -307.3 -234.5 -322.8C-196.5 -338.3 -152.8 -336.3 -112.8 -347.1C-72.8 -357.9 -36.4 -381.5 0 -405L0 0Z" fill="#f78115"></path><path d="M-303.7 0C-296.6 -30.6 -289.5 -61.1 -281 -91.3C-272.6 -121.5 -262.8 -151.3 -245.7 -178.5C-228.7 -205.8 -204.4 -230.5 -175.9 -242.1C-147.4 -253.7 -114.6 -252.3 -84.6 -260.4C-54.6 -268.4 -27.3 -286.1 0 -303.7L0 0Z" fill="#f99424"></path><path d="M-202.5 0C-197.7 -20.4 -193 -40.8 -187.4 -60.9C-181.7 -81 -175.2 -100.9 -163.8 -119C-152.5 -137.2 -136.3 -153.7 -117.3 -161.4C-98.2 -169.1 -76.4 -168.2 -56.4 -173.6C-36.4 -179 -18.2 -190.7 0 -202.5L0 0Z" fill="#faa534"></path><path d="M-101.2 0C-98.9 -10.2 -96.5 -20.4 -93.7 -30.4C-90.9 -40.5 -87.6 -50.4 -81.9 -59.5C-76.2 -68.6 -68.1 -76.8 -58.6 -80.7C-49.1 -84.6 -38.2 -84.1 -28.2 -86.8C-18.2 -89.5 -9.1 -95.4 0 -101.2L0 0Z" fill="#fbae3c"></path></g><g transform="translate(0, 0)"><path d="M405 0C406.1 46.9 407.2 93.9 382.3 124.2C357.4 154.6 306.5 168.4 283.2 205.7C259.8 243.1 263.9 304 238.1 327.7C212.2 351.3 156.5 337.6 111.9 344.3C67.2 351 33.6 378 0 405L0 0Z" fill="#f78115"></path><path d="M303.8 0C304.6 35.2 305.4 70.4 286.7 93.2C268.1 115.9 229.9 126.3 212.4 154.3C194.8 182.3 197.9 228 178.5 245.7C159.2 263.5 117.4 253.2 83.9 258.2C50.4 263.2 25.2 283.5 0 303.8L0 0Z" fill="#f99424"></path><path d="M202.5 0C203.1 23.5 203.6 46.9 191.2 62.1C178.7 77.3 153.3 84.2 141.6 102.9C129.9 121.5 131.9 152 119 163.8C106.1 175.6 78.3 168.8 55.9 172.1C33.6 175.5 16.8 189 0 202.5L0 0Z" fill="#faa534"></path><path d="M101.3 0C101.5 11.7 101.8 23.5 95.6 31.1C89.4 38.6 76.6 42.1 70.8 51.4C64.9 60.8 66 76 59.5 81.9C53.1 87.8 39.1 84.4 28 86.1C16.8 87.7 8.4 94.5 0 101.3L0 0Z" fill="#fbae3c"></path></g></svg>